<?xml version="1.0" encoding="utf-8"?>
<!-- Generator: Adobe Illustrator 16.0.0, SVG Export Plug-In . SVG Version: 6.00 Build 0)  -->
<!DOCTYPE svg PUBLIC "-//W3C//DTD SVG 1.1//EN" "http://www.w3.org/Graphics/SVG/1.1/DTD/svg11.dtd">
<svg version="1.1" id="Layer_1" xmlns="http://www.w3.org/2000/svg" xmlns:xlink="http://www.w3.org/1999/xlink" x="0px" y="0px"
	 width="1147.333px" height="178.667px" viewBox="0 0 1147.333 178.667" enable-background="new 0 0 1147.333 178.667"
	 xml:space="preserve">
<g>
	<path fill="#3952E7" d="M293.155,5.894h44.915v125.392h78.486v40.22H293.155V5.894z"/>
</g>
<g>
	<path fill="#3952E7" d="M440.632,5.894h130.347v39.037h-85.895v25.078h77.791v36.198h-77.791v26.261h87.052v39.037H440.632V5.894z"
		/>
</g>
<g>
	<path fill="#3952E7" d="M590.179,147.028l24.873-30.36c15.891,12.944,33.624,19.77,52.278,19.77
		c11.976,0,18.424-4.236,18.424-11.297v-0.471c0-6.825-5.297-10.591-27.176-15.769c-34.314-8.002-60.799-17.887-60.799-51.777
		v-0.471c0-30.596,23.721-52.719,62.411-52.719c27.406,0,48.824,7.531,66.327,21.888l-22.34,32.243
		c-14.739-10.591-30.86-16.239-45.139-16.239c-10.824,0-16.121,4.707-16.121,10.591v0.471c0,7.531,5.527,10.826,27.866,16.004
		c37.079,8.237,60.108,20.476,60.108,51.307v0.471c0,33.655-26.023,53.66-65.175,53.66
		C637.161,174.329,609.986,165.15,590.179,147.028z"/>
</g>
<g>
	<path fill="#3952E7" d="M744.478,147.028l24.873-30.36c15.891,12.944,33.624,19.77,52.278,19.77
		c11.976,0,18.424-4.236,18.424-11.297v-0.471c0-6.825-5.297-10.591-27.176-15.769c-34.314-8.002-60.799-17.887-60.799-51.777
		v-0.471c0-30.596,23.721-52.719,62.411-52.719c27.406,0,48.824,7.531,66.327,21.888l-22.34,32.243
		c-14.739-10.591-30.86-16.239-45.139-16.239c-10.824,0-16.121,4.707-16.121,10.591v0.471c0,7.531,5.527,10.826,27.866,16.004
		c37.079,8.237,60.108,20.476,60.108,51.307v0.471c0,33.655-26.023,53.66-65.175,53.66
		C791.459,174.329,764.285,165.15,744.478,147.028z"/>
</g>
<g>
	<path fill="#3952E7" d="M911.291,5.894h45.146v165.611h-45.146V5.894z"/>
</g>
<g>
	<path fill="#3952E7" d="M983.061,89.172v-0.473c0-48.264,37.043-86.118,87.283-86.118c28.478,0,48.62,8.99,65.753,24.132
		l-26.394,32.413c-11.576-9.937-23.152-15.615-39.127-15.615c-23.384,0-41.442,20.11-41.442,45.425v0.473
		c0,26.734,18.29,45.897,43.988,45.897c10.882,0,19.217-2.365,25.931-6.86v-20.11h-31.95V74.741h74.55v74.525
		c-17.132,14.432-40.979,25.552-70.382,25.552C1020.799,174.817,983.061,139.329,983.061,89.172z"/>
</g>
<g>
	<defs>
		<rect id="SVGID_1_" x="6.956" y="8.242" width="220" height="163.26"/>
	</defs>
	<clipPath id="SVGID_2_">
		<use xlink:href="#SVGID_1_"  overflow="visible"/>
	</clipPath>
	<path clip-path="url(#SVGID_2_)" fill="#FF4E4E" d="M94.956,67.288h132V8.242h-132V67.288z M6.956,171.502h220v-59.174h-220
		V171.502z"/>
</g>
<rect x="6.956" y="8.242" fill="#3952E7" width="88" height="59.046"/>
</svg>
